<svg width="616" height="193" viewBox="0 0 616 193" fill="none" xmlns="http://www.w3.org/2000/svg">
<g clip-path="url(#clip0_3_8)">
<path d="M198.88 143.37H179.4L214.91 53.46C218.66 44.02 225.55 40.42 236.19 40.42C246.83 40.42 253.57 44.02 257.17 53.46L291.33 143.37H271.7L240.98 62.01C240.08 59.61 238.43 58.56 236.04 58.56C233.65 58.56 232 59.61 230.94 62.01L198.88 143.37Z" fill="#0A0F2C"/>
<path d="M360.87 42.2301C383.65 42.2301 393.39 56.3101 393.39 72.5001C393.39 85.0901 387.4 98.5701 371.96 102.92L395.49 143.38H375.86L352.78 104.27H326.41C324.76 104.27 323.86 105.02 323.86 106.82V143.38H306.18V103.37C306.18 91.9801 310.97 87.3401 322.06 87.3401H361.47C371.51 87.3401 375.55 80.4501 375.55 73.2601C375.55 66.0701 371.2 59.9201 361.47 59.9201H306.03V42.2401H360.87V42.2301Z" fill="#0A0F2C"/>
<path d="M492.15 42.2301V59.9101H453.04C433.56 59.9101 425.02 69.6501 425.02 92.8801C425.02 116.11 433.41 125.69 453.04 125.69H492.15V143.37H453.04C423.52 143.37 407.34 126.74 407.34 92.8701C407.34 59.0001 423.67 42.2201 453.04 42.2201H492.15V42.2301Z" fill="#0A0F2C"/>
<path d="M523.33 143.37H503.85L539.36 53.46C543.11 44.02 550 40.42 560.64 40.42C571.28 40.42 578.02 44.02 581.62 53.46L615.78 143.37H596.15L565.43 62.01C564.53 59.61 562.88 58.56 560.49 58.56C558.1 58.56 556.45 59.61 555.39 62.01L523.33 143.37Z" fill="#0A0F2C"/>
<path d="M141.45 192.02V42.91C141.45 39.15 139.4 35.68 136.1 33.86L77.99 1.86C73.49 -0.62 68.03 -0.62 63.52 1.86L7.77 32.55C2.98 35.19 0 40.22 0 45.69V107.73C0 111.5 2.05 114.96 5.35 116.78L72.2 153.57V125.99L30.31 103.25V30.44L80.82 58.24C84.01 60 86 63.35 86 67V154.87C86 158.48 87.94 161.8 91.08 163.58L141.45 192.02Z" fill="#185AF0"/>
</g>
<defs>
<clipPath id="clip0_3_8">
<rect width="616" height="193" fill="white"/>
</clipPath>
</defs>
</svg>
